# xmcd CD database file
#
# Track frame offsets:
#	150
#	13132
#	30137
#	48290
#	59990
#	71012
#	110977
#	122770
#	146002
#	159365
#	175122
#	192605
#	208327
#	229737
#	249790
#
# Disc length: 3550 seconds
#
# Revision: 0
# Processed by: cddbd v1.5PL3 Copyright (c) Steve Scherf et al.
# Submitted via: CDex 1.51
#
DISCID=dc0ddc0f
DTITLE=Various Artist - flok&new music history
DYEAR=1900
DGENRE=Folk
TTITLE0=空に星があるように - 荒木一郎
TTITLE1=受験生ブルース - 高石友也
TTITLE2=遠い世界に - 五つの赤い風船
TTITLE3=走れコウタロー - ソルティー・シュガー
TTITLE4=面影橋から - 六文銭
TTITLE5=人間なんて - 吉田拓郎
TTITLE6=万年床 - なぎらけんいち
TTITLE7=サルビアの花 - 早川義夫
TTITLE8=白いギター - チェリッシュ
TTITLE9=夏しぐれ - アルフィー
TTITLE10=東京 - マイ・ベース
TTITLE11=目覚めた時には晴れていた - 伝書鳩
TTITLE12=雨の嵐山 - 長渕　剛
TTITLE13=やっぱ好きやねん - やしきたかじん
TTITLE14=俺たちの朝 - 松崎しげる
EXTD=
EXTT0=
EXTT1=
EXTT2=
EXTT3=
EXTT4=
EXTT5=
EXTT6=
EXTT7=
EXTT8=
EXTT9=
EXTT10=
EXTT11=
EXTT12=
EXTT13=
EXTT14=
PLAYORDER=
